<svg class="brand-logo" data-v-0ecae711="" style="width:260px;height:80px" version="1.1" viewBox="0 0 260 80"
    xmlns="http://www.w3.org/2000/svg" xmlns:xlink="http://www.w3.org/1999/xlink">
    <defs>
        <polygon points="0.0238167939 46.9686564 0.0238167939 0.0194062445 44.170626 0.0194062445 44.170626 46.9686564">
        </polygon>
        <polygon points="0.0238167939 46.9686564 0.0238167939 0.0194062445 44.170626 0.0194062445 44.170626 46.9686564">
        </polygon>
    </defs>
    <g fill="none" fill-rule="evenodd" stroke="none" stroke-width="1">
        <g>
            <g>
                <path
                    d="M108.208427,21.251422 C108.365221,18.6826689 109.282565,16.4248117 111.052947,14.5582478 C113.144458,12.3542529 115.639664,11.2389879 118.532214,11.2080963 C119.211786,11.2080963 119.869924,11.2750281 120.498687,11.3835446 C120.599908,11.4021588 120.69716,11.4259215 120.799969,11.4457238 C121.360855,11.5649336 121.90229,11.7249361 122.421099,11.9336523 C122.50684,11.9617715 122.585832,11.9839501 122.672366,12.017614 C123.276519,12.2750437 123.851695,12.5895041 124.397496,12.9661437 L124.434809,12.994659 C124.994901,13.3788234 125.524031,13.8402168 126.01942,14.3566605 C127.581008,15.9844088 128.557893,17.8093879 128.948885,19.8304096 C128.961588,19.8814995 128.963573,19.9452629 128.973893,20.0011054 C129.047328,20.4106167 129.063603,20.828049 129.090992,21.251422 L108.208427,21.251422 Z M129.905527,12.5768307 C129.807481,12.4623734 129.701099,12.3590055 129.597099,12.2437561 C129.39545,12.0132575 129.184275,11.7831549 128.961588,11.5649336 C128.806382,11.4104757 128.647206,11.2667111 128.488031,11.1205702 C128.390382,11.0377966 128.310595,10.9463101 128.203023,10.8627444 L128.124824,10.7859115 C128.05655,10.7269007 128.00058,10.6674938 127.92913,10.6207604 C127.884275,10.5803637 127.837435,10.5486801 127.792977,10.5162043 C127.673496,10.4255098 127.552031,10.3300628 127.433344,10.2389723 C127.34284,10.167684 127.26226,10.0912472 127.161435,10.0195629 C127.067359,9.95342322 126.964153,9.9134226 126.867298,9.84569876 C126.37945,9.51302029 125.872153,9.20648083 125.339053,8.93202109 C125.263237,8.88924814 125.18742,8.8413266 125.111206,8.80211806 C125.04055,8.76568185 124.968305,8.72211681 124.898443,8.6856806 C124.321679,8.4116169 123.731023,8.18666288 123.136,7.99616485 C123.095908,7.97992697 123.055817,7.97161001 123.016916,7.95616422 C122.360763,7.74942831 121.693893,7.5945744 121.019084,7.48764203 C120.97026,7.47932507 120.91945,7.46704765 120.873802,7.46031487 C120.207328,7.36882829 119.539267,7.2963519 118.860885,7.2963519 C118.821191,7.2963519 118.778321,7.3015005 118.739023,7.3015005 L118.676305,7.2963519 C117.352092,7.2963519 116.097344,7.46427533 114.897771,7.77715151 C112.467664,8.37676487 110.32574,9.55579323 108.472397,11.3415638 C105.423053,14.2719067 103.900366,17.7618624 103.900366,21.8189556 C103.900366,22.6855038 103.972611,23.5231407 104.099237,24.3334504 L104.099237,24.3663222 L104.104397,24.3663222 C104.537863,27.0800281 105.68345,29.5014522 107.553466,31.6341588 C107.667786,31.7640619 107.794809,31.8757468 107.912702,32.0028775 C107.964305,32.0583239 108.005985,32.1220873 108.059573,32.1810981 C108.181038,32.3086249 108.314015,32.4163493 108.437863,32.5387275 C108.548611,32.6440757 108.66055,32.7565527 108.777252,32.8611088 C111.45426,35.3348109 114.690168,36.5918603 118.500458,36.62394 C118.542534,36.62394 118.586595,36.6322569 118.628275,36.6322569 L118.647328,36.6322569 L118.669954,36.6271083 C119.465038,36.6271083 120.229954,36.5570082 120.980183,36.4421549 C121.023053,36.4370063 121.059573,36.4298775 121.098076,36.4243329 C122.707298,36.1676952 124.212122,35.6552119 125.615328,34.8892593 L125.629618,34.8769819 C126.099206,34.6195521 126.551725,34.3288545 126.992336,34.0199388 C127.247176,33.8448865 127.513527,33.7141914 127.763206,33.5312183 L127.763206,33.4484447 C128.110137,33.166064 128.452702,32.8678415 128.782962,32.5549653 C130.568824,30.8361265 131.756092,28.8741156 132.479725,26.7172501 L128.024397,26.7172501 C127.679053,27.4847869 127.274962,28.2305412 126.712885,28.9057993 C125.714168,30.113739 124.503481,31.0507834 123.071695,31.7173285 C122.720397,31.8911926 122.360763,32.0306007 121.995573,32.1533749 C121.928885,32.1810981 121.858626,32.1933755 121.788763,32.2203066 C121.507328,32.3121893 121.224305,32.396151 120.941282,32.4622906 C120.172,32.6345706 119.397557,32.7209085 118.615969,32.7260571 C117.965374,32.7260571 117.337008,32.6622938 116.727695,32.5549653 C116.30058,32.4761522 115.894107,32.3399125 115.48684,32.2092174 C115.334412,32.1616919 115.18,32.1304042 115.032733,32.0789183 C113.933191,31.6571295 112.893985,31.0365257 111.915908,30.1961165 C110.215389,28.7624307 109.105924,27.0800281 108.55655,25.0752442 L128.704763,25.0752442 L128.701191,25.0831651 L133.010443,25.0831651 L133.010443,25.0752442 L133.079511,25.0752442 C133.079511,25.0752442 133.079511,24.9283112 133.079511,24.7223674 C133.239084,23.8292841 133.328794,22.8954081 133.328794,21.9377693 C133.328794,18.3939515 132.18916,15.2762789 129.905527,12.5768307 Z"
                    fill="#4D4E4C" fill-rule="nonzero">
                </path>
                <path
                    d="M160.659359,10.0195629 C158.07484,8.20646517 155.241832,7.2963519 152.177802,7.2963519 C148.244061,7.2963519 144.858504,8.66310598 142.020733,11.4021588 C138.99084,14.2881446 137.474107,17.8093879 137.474107,21.96074 C137.474107,25.9045642 138.835634,29.3077858 141.556702,32.1810981 C144.401221,35.1474812 147.928489,36.6322569 152.148824,36.6322569 C155.426809,36.6322569 158.465435,35.5993695 161.262718,33.5312183 L161.262718,28.4186629 C158.349527,31.2931634 155.289466,32.7260571 152.090076,32.7260571 C149.615908,32.7260571 147.388641,31.8832717 145.414626,30.1961165 C142.899573,28.0808359 141.646015,25.3291096 141.646015,21.96074 C141.646015,19.0715858 142.613374,16.6069928 144.551664,14.5582478 C146.680885,12.3174206 149.217771,11.1997794 152.177802,11.1997794 C154.013679,11.1997794 155.779695,11.6881039 157.469893,12.6647528 C159.844427,14.0390318 161.419511,16.0398552 162.188397,18.6644508 C162.608763,20.0565518 162.817557,22.2969829 162.817557,25.3766351 L162.817557,36.0809612 L166.87316,36.0809612 L166.87316,25.3211887 C166.87316,22.4510447 166.681038,20.1844746 166.297191,18.5210822 C165.456061,14.9000354 163.574534,12.069496 160.659359,10.0195629"
                    fill="#4D4E4C" fill-rule="nonzero">
                </path>
                <path
                    d="M209.105099,11.6881039 C208.128611,10.305904 206.86116,9.23420404 205.305924,8.45953844 C203.757038,7.68606098 202.09542,7.2963519 200.331389,7.2963519 C196.590962,7.2963519 193.578137,8.91261484 191.296489,12.1451407 C188.997771,8.91261484 185.965893,7.2963519 182.207206,7.2963519 C180.233985,7.2963519 178.382229,7.79338939 176.655908,8.78548414 C174.623542,9.97639388 173.157618,11.6512716 172.252183,13.8120975 C171.586901,15.4188554 171.25029,17.750377 171.25029,20.810623 L171.25029,36.0809612 L175.304702,36.0809612 L175.304702,20.810623 C175.304702,17.9448355 175.78342,15.7412366 176.744427,14.2121038 C177.989252,12.2041515 179.805282,11.1997794 182.180214,11.1997794 C183.256336,11.1997794 184.29316,11.4500803 185.299817,11.9471178 C186.30687,12.4425711 187.108702,13.1126806 187.702137,13.9515056 C188.716336,15.3479632 189.227603,17.6347317 189.227603,20.810623 L189.227603,36.0809612 L193.314168,36.0809612 L193.314168,21.7322216 C193.314168,19.9729861 193.389588,18.5757365 193.542412,17.5396807 C193.828611,15.553907 194.560183,14.0390318 195.730382,13.0061443 C197.07087,11.8029571 198.60745,11.1997794 200.331389,11.1997794 C201.577802,11.1997794 202.721008,11.5174081 203.757038,12.1451407 C204.883969,12.8556469 205.721527,13.7843743 206.257802,14.931323 C206.946107,16.4248117 207.295023,18.6517773 207.295023,21.6169722 L207.295023,36.0809612 L211.348244,36.0809612 L211.348244,21.6732107 C211.348244,19.7080315 211.254168,18.0002819 211.057679,16.5669922 C210.833802,14.8243906 210.179634,13.2009988 209.105099,11.6881039"
                    fill="#4D4E4C" fill-rule="nonzero">
                </path>
                <polygon
                    points="215.633282 36.0809612 219.691267 36.0809612 219.691267 7.66744683 215.633282 7.66744683"
                    fill="#4D4E4C" fill-rule="nonzero">
                </polygon>
                <path
                    d="M219.592824,1.03209537 C219.049802,0.460997319 218.415481,0.174656201 217.674382,0.174656201 C216.972183,0.174656201 216.371206,0.396837899 215.864702,0.838428974 C215.296275,1.374675 215.009282,2.01983362 215.009282,2.77588506 C215.009282,3.46223245 215.233557,4.04956838 215.674565,4.54977423 C216.193771,5.11968415 216.843176,5.4072134 217.616427,5.4072134 C218.302748,5.4072134 218.893405,5.18503171 219.397924,4.74423272 C219.968733,4.22858108 220.259695,3.57312527 220.259695,2.77588506 C220.259695,2.11250834 220.031847,1.52873682 219.592824,1.03209537"
                    fill="#4D4E4C" fill-rule="nonzero">
                </path>
                <path
                    d="M157.778321,44.3214863 C157.25316,43.765834 156.630351,43.4882059 155.903145,43.4882059 C155.22,43.4882059 154.634504,43.6992983 154.144672,44.1353447 C153.58458,44.656145 153.309099,45.287442 153.309099,46.0296318 C153.309099,46.6930086 153.525435,47.2680671 153.956519,47.7524311 C154.461832,48.3140241 155.096153,48.590068 155.850351,48.590068 C156.519206,48.590068 157.096366,48.3754112 157.586992,47.9425331 C158.142321,47.4387628 158.423756,46.7999409 158.423756,46.0296318 C158.423756,45.3785325 158.207023,44.8113949 157.778321,44.3214863"
                    fill="#4D4E4C" fill-rule="nonzero">
                </path>
                <path
                    d="M126.442962,53.9576768 C123.917191,52.1861639 121.156427,51.3002094 118.16345,51.3002094 C114.326962,51.3002094 111.023573,52.6360719 108.258046,55.3038365 C105.301985,58.1224945 103.821374,61.5562117 103.821374,65.6101365 C103.821374,69.4533651 105.150351,72.7757933 107.806321,75.5778174 C110.575817,78.4685558 114.018931,79.9180834 118.134473,79.9180834 C121.333466,79.9180834 124.301038,78.9148994 127.031634,76.8922935 L127.031634,71.9100372 C124.184733,74.709685 121.205649,76.1065386 118.078107,76.1065386 C115.665466,76.1065386 113.492183,75.2898921 111.568183,73.6451139 C109.116244,71.5730022 107.889679,68.8929602 107.889679,65.6101365 C107.889679,62.7906864 108.838382,60.3803517 110.725069,58.3842808 C112.80229,56.1965238 115.283206,55.109378 118.16345,55.109378 C119.960427,55.109378 121.678015,55.585029 123.330107,56.5383113 C125.646687,57.8753619 127.181679,59.8318282 127.92913,62.3910762 C128.340366,63.7510975 128.549954,65.9317257 128.549954,68.9448422 L128.549954,79.3857979 L132.507908,79.3857979 L132.507908,68.8842472 C132.507908,66.0822231 132.316183,63.8703073 131.943053,62.250876 C131.122962,58.7169593 129.28629,55.9585002 126.442962,53.9576768"
                    fill="#4D4E4C" fill-rule="nonzero">
                </path>
                <path
                    d="M140.519878,43.4561262 L136.562321,43.4561262 L136.562321,66.5028238 C136.562321,68.6553328 136.673069,70.4494203 136.89655,71.9100372 C137.233557,73.9274945 138.176305,75.6427689 139.73313,77.0633852 C141.73374,78.8733146 144.344061,79.7790713 147.559725,79.7790713 C148.216672,79.7790713 148.97484,79.7220407 149.836214,79.6079796 L149.836214,75.7425725 C149.048275,75.8720795 148.365924,75.9405954 147.786779,75.9405954 C144.228153,75.9405954 141.987786,74.510474 141.05258,71.6601323 C140.698901,70.5563526 140.519878,68.829989 140.519878,66.4754966 L140.519878,55.497899 L149.836214,55.497899 L149.836214,51.6629874 L140.519878,51.6629874 L140.519878,43.4561262"
                    fill="#4D4E4C" fill-rule="nonzero">
                </path>
                <polygon
                    points="153.930718 79.3857979 157.885496 79.3857979 157.885496 51.6629874 153.930718 51.6629874"
                    fill="#4D4E4C" fill-rule="nonzero">
                </polygon>
                <path
                    d="M183.981954,72.3821238 C183.004275,73.5615482 181.823359,74.4795824 180.428092,75.1294936 C179.032427,75.7853454 177.589527,76.1065386 176.091053,76.1065386 C173.419206,76.1065386 171.068489,75.1651377 169.046443,73.2835241 C166.880702,71.242304 165.789893,68.6874125 165.789893,65.6101365 C165.789893,63.184356 166.520672,61.0290747 167.982229,59.1423125 C168.97142,57.8725896 170.168214,56.8828711 171.559908,56.172365 C172.954382,55.4614627 174.408,55.109378 175.923939,55.109378 C178.880397,55.109378 181.34345,56.1367208 183.306351,58.1890302 C185.344275,60.3134199 186.363237,62.7906864 186.363237,65.6101365 C186.363237,68.2022564 185.568153,70.4609056 183.981954,72.3821238 Z M182.209985,52.6550821 C180.319725,51.7540779 178.354046,51.3002094 176.316916,51.3002094 C172.291878,51.3002094 168.915847,52.6162697 166.186443,55.247994 C163.208153,58.1062566 161.724366,61.5082901 161.724366,65.4707284 C161.724366,69.1472216 162.912031,72.3393509 165.28855,75.0475121 C166.654046,76.5996156 168.275969,77.7944858 170.155115,78.643212 C172.037435,79.4923342 174.014626,79.9180834 176.091053,79.9180834 C179.92516,79.9180834 183.231725,78.5933102 186.003206,75.9405954 C188.957282,73.1053034 190.434718,69.6466354 190.434718,65.5816212 C190.434718,62.1233493 189.325252,59.0840937 187.094412,56.4519733 C185.729313,54.8273934 184.102229,53.5640073 182.209985,52.6550821 Z"
                    fill="#4D4E4C" fill-rule="nonzero">
                </path>
                <path
                    d="M215.830962,55.2709647 C213.457221,52.627755 210.424153,51.3002094 206.73771,51.3002094 C204.695023,51.3002094 202.817863,51.746157 201.099084,52.6435968 C198.683664,53.8733191 196.893832,55.7248332 195.735542,58.1890302 C194.911481,59.907869 194.502229,62.3910762 194.502229,65.6370677 L194.502229,79.3857979 L198.430412,79.3857979 L198.430412,65.3004287 C198.430412,62.2952331 198.980183,60.0365839 200.083695,58.524481 C200.873221,57.4614941 201.856061,56.6206888 203.050473,56.0135506 C204.238534,55.4111649 205.465496,55.109378 206.73771,55.109378 C209.074137,55.109378 211.089832,55.9937483 212.772885,57.7640731 C214.308275,59.3918213 215.073191,61.9015636 215.073191,65.3004287 L215.073191,79.3857979 L219.003756,79.3857979 L219.003756,65.6370677 C219.003756,63.6009962 218.84458,61.8540381 218.523053,60.3961935 C218.134046,58.5712144 217.235756,56.8662372 215.830962,55.2709647"
                    fill="#4D4E4C" fill-rule="nonzero">
                </path>
                <path
                    d="M245.841313,53.9576768 C243.312366,52.1861639 240.552794,51.3002094 237.561405,51.3002094 C233.722534,51.3002094 230.421527,52.6360719 227.650046,55.3038365 C224.693588,58.1224945 223.216153,61.5562117 223.216153,65.6101365 C223.216153,69.4533651 224.546718,72.7757933 227.205863,75.5778174 C229.969008,78.4685558 233.417679,79.9180834 237.532031,79.9180834 C240.73142,79.9180834 243.697405,78.9148994 246.426809,76.8922935 L246.426809,71.9100372 C243.585863,74.709685 240.600824,76.1065386 237.47487,76.1065386 C235.06342,76.1065386 232.891328,75.2898921 230.962962,73.6451139 C228.514595,71.5730022 227.287634,68.8929602 227.287634,65.6101365 C227.287634,62.7906864 228.229191,60.3803517 230.123023,58.3842808 C232.202229,56.1965238 234.676397,55.109378 237.561405,55.109378 C239.355603,55.109378 241.077557,55.585029 242.722901,56.5383113 C245.042656,57.8753619 246.578443,59.8318282 247.331053,62.3910762 C247.739115,63.7510975 247.941557,65.9317257 247.941557,68.9448422 L247.941557,79.3857979 L251.901099,79.3857979 L251.901099,68.8842472 C251.901099,66.0822231 251.716916,63.8703073 251.342992,62.250876 C250.515756,58.7169593 248.685038,55.9585002 245.841313,53.9576768"
                    fill="#4D4E4C" fill-rule="nonzero">
                </path>
                <polygon
                    points="255.921374 79.3857979 259.878931 79.3857979 259.878931 43.5270184 255.921374 43.5270184"
                    fill="#4D4E4C" fill-rule="nonzero">
                </polygon>
                <path
                    d="M93.8381679,4.41828702 C91.5799389,2.86222305 89.1176794,2.0879535 86.4426565,2.0879535 C84.2082443,2.0879535 82.0893435,2.64400181 80.0903206,3.7592668 C77.3843359,5.26463691 75.466687,7.47536461 74.3476947,10.4017471 C73.706229,12.1087045 73.3831145,14.5178512 73.3831145,17.6279989 L73.3831145,36.33047 L77.5490687,36.33047 L77.5490687,18.5899941 C77.5490687,16.2735222 77.651084,14.5788422 77.8559084,13.4984292 C78.2957252,11.126907 79.3718473,9.27776908 81.0822901,7.94467889 C82.672458,6.68960973 84.4607023,6.07059013 86.4426565,6.07059013 C88.0530687,6.07059013 89.5582901,6.50703261 90.9650687,7.38783849 C92.8950229,8.5672629 94.1739847,10.305904 94.7995725,12.605742 C95.1369771,13.8227908 95.308458,15.8164854 95.308458,18.5899941 L95.308458,36.33047 L99.476,36.33047 L99.476,17.6279989 C99.476,15.1059792 99.2898321,13.1209976 98.9170992,11.671866 C98.1200305,8.63142232 96.4262595,6.20920616 93.8381679,4.41828702"
                    fill="#4D4E4C" fill-rule="nonzero">
                </path>
                <path
                    d="M93.8516641,47.3397514 C91.5978015,45.7840834 89.135145,45.0113981 86.4585344,45.0113981 C84.2229313,45.0113981 82.1056183,45.5646741 80.1077863,46.6763746 C77.3990229,48.1849131 75.4837557,50.396829 74.3647634,53.319251 C73.7205191,55.0301689 73.3989924,57.434959 73.3989924,60.5443146 L73.3989924,79.2475779 L77.5645496,79.2475779 L77.5645496,61.5082901 C77.5645496,59.1937984 77.6689466,57.495554 77.8729771,56.415141 C78.3127939,54.0444108 79.3877252,52.1984413 81.0985649,50.8653511 C82.6899237,49.610678 84.4749924,48.9888861 86.4585344,48.9888861 C88.0705344,48.9888861 89.5721832,49.4233484 90.9837252,50.3045503 C92.9132824,51.4887272 94.1898626,53.2277644 94.8190229,55.5264142 C95.1572214,56.7398986 95.323542,58.7379497 95.323542,61.5082901 L95.323542,79.2475779 L99.4938626,79.2475779 L99.4938626,60.5443146 C99.4938626,58.0278396 99.3033282,56.0416698 98.9341679,54.5893699 C98.1370992,51.547342 96.4441221,49.1294824 93.8516641,47.3397514"
                    fill="#4D4E4C" fill-rule="nonzero">
                </path>
                <polygon
                    points="7.05572519 79.2523304 18.0821069 79.2523304 18.0821069 72.3155881 7.05572519 72.3155881"
                    fill="#FAD38C" fill-rule="nonzero">
                </polygon>
                <path
                    d="M25.5260458,72.3155881 L18.0825038,72.3155881 L18.0825038,32.7577408 C19.3670229,32.3680317 20.7087023,32.1727811 22.1083359,32.1727811 C23.2825038,32.1727811 24.4229313,32.31813 25.5304122,32.6084315 L25.5260458,72.3155881"
                    fill="#FAD38C" fill-rule="nonzero">
                </path>
                <g transform="translate(0.000000, 25.346932)">
                    <g>
                        <mask fill="white">
                            <use xlink:href="#path-1">
                            </use>
                        </mask>
                        <g>
                        </g>
                        <path
                            d="M44.170626,46.9603395 L37.1176794,46.9603395 L37.1176794,29.2265964 C37.1176794,24.2637464 36.8290992,20.6973539 36.2606718,18.5179138 C35.1984427,14.4121069 33.0330992,11.3007711 29.7622595,9.18509436 C28.4054962,8.28527828 26.9963359,7.64606035 25.5304122,7.26149987 L25.5304122,6.9894164 C25.5304122,4.41591075 25.6018626,1.96874371 25.7423817,0.0194062445 C28.8921527,0.571098054 31.8517863,1.85428647 34.6260458,3.87649636 C39.0099237,7.08090299 41.874687,11.403743 43.2223206,16.8473926 C43.8542595,19.4438689 44.170626,22.9928354 44.170626,27.4950841 L44.170626,46.9603395"
                            fill="#FAD38C" fill-rule="nonzero" mask="url(#mask-2)">
                        </path>
                    </g>
                    <g>
                        <mask fill="white">
                            <use xlink:href="#path-3">
                            </use>
                        </mask>
                        <g>
                        </g>
                        <path
                            d="M7.05572519,46.9686564 L0.00357251908,46.9686564 L0.00357251908,27.4950841 C0.00357251908,21.9409377 0.548183206,17.6339396 1.63859542,14.5800303 C3.53203053,9.34786919 6.76833588,5.38939134 11.3578321,2.70261659 C13.5735878,1.39685356 15.8754809,0.516839778 18.2635115,0.0649515124 C18.1432366,1.71210602 18.0825038,3.46064826 18.0825038,5.25869623 L18.0825038,7.41080914 C16.2879084,7.95537213 14.6056489,8.8785549 13.0353282,10.1866942 C10.14,12.571286 8.31960305,15.8747041 7.57731298,20.1064535 C7.23196947,22.0435136 7.05572519,25.0807889 7.05572519,29.2265964 L7.05572519,46.9686564"
                            fill="#FAD38C" fill-rule="nonzero" mask="url(#mask-4)">
                        </path>
                    </g>
                </g>
                <polygon points="44.170626 79.2582711 57.2932824 79.2582711 57.2932824 72.3072711 44.170626 72.3072711"
                    fill="#FAD38C" fill-rule="nonzero">
                </polygon>
                <path
                    d="M64.7439695,72.3072711 L57.2932824,72.3072711 L57.2932824,32.3363481 C57.2932824,27.3734981 56.992,23.0261032 56.3870534,20.854188 C55.268458,16.73848 52.9784733,13.6299165 49.526626,11.5130516 C47.0068092,9.9367893 44.3167023,9.15459883 41.4372519,9.15459883 C37.8893435,9.15459883 34.6923359,10.2742203 31.8494046,12.5142554 C28.7893435,14.9000354 26.8653435,18.2062258 26.0778015,22.4391633 C25.9400611,23.1730362 25.8281221,24.1774084 25.7423817,25.3663379 C24.5578931,25.1592059 23.3468092,25.0546498 22.1083359,25.0546498 C20.8027786,25.0546498 19.5210382,25.1742557 18.2635115,25.4118832 C18.5151756,21.9698491 19.0296183,18.9733665 19.8068397,16.9079876 C21.8074504,11.6770146 25.2295267,7.72130906 30.0762443,5.0345343 C33.6483664,3.03727529 37.4388092,2.03686359 41.4372519,2.03686359 C46.2216489,2.03686359 50.6265649,3.42619228 54.6619237,6.20445361 C59.2930992,9.41400884 62.3210076,13.7364528 63.7480305,19.1777261 C64.4117252,21.7761827 64.7439695,26.1033791 64.7439695,30.6056279 L64.7439695,72.3072711"
                    fill="#FAD38C" fill-rule="nonzero">
                </path>
                <g fill="#F1AF2A" fill-rule="nonzero" transform="translate(0.000000, 72.080337)">
                    <polygon
                        points="18.0825038 7.17199352 25.5260458 7.17199352 25.5260458 0.235251209 18.0825038 0.235251209">
                    </polygon>
                    <polygon
                        points="0.0238167939 7.17199352 7.05572519 7.17199352 7.05572519 0.235251209 0.0238167939 0.235251209">
                    </polygon>
                </g>
                <path
                    d="M25.7427786,25.3663379 C24.5578931,25.1592059 23.3468092,25.0546498 22.1083359,25.0546498 C20.8027786,25.0546498 19.5210382,25.1742557 18.2635115,25.4118832 C18.1432366,27.0586416 18.0825038,28.8075799 18.0825038,30.6056279 L18.0825038,32.7577408 C19.366626,32.3680317 20.7087023,32.1727811 22.1083359,32.1727811 C23.2825038,32.1727811 24.4229313,32.31813 25.5304122,32.6084315 L25.5304122,32.3363481 C25.5304122,29.7628424 25.6018626,27.3156754 25.7427786,25.3663379"
                    fill="#F1AF2A" fill-rule="nonzero">
                </path>
                <polygon
                    points="57.2932824 79.2582711 64.7439695 79.2582711 64.7439695 72.3072711 57.2932824 72.3072711"
                    fill="#F1AF2A" fill-rule="nonzero">
                </polygon>
                <polygon points="37.1176794 79.2582711 44.170626 79.2582711 44.170626 72.3072711 37.1176794 72.3072711"
                    fill="#F1AF2A" fill-rule="nonzero">
                </polygon>
            </g>
        </g>
    </g>
</svg>